<?xml version="1.0" encoding="UTF-8" standalone="no"?>
<svg
   xmlns:dc="http://purl.org/dc/elements/1.1/"
   xmlns:cc="http://creativecommons.org/ns#"
   xmlns:rdf="http://www.w3.org/1999/02/22-rdf-syntax-ns#"
   xmlns:svg="http://www.w3.org/2000/svg"
   xmlns="http://www.w3.org/2000/svg"
   viewBox="0 0 468 60"
   version="1.1"
   id="svg4152"
   height="60"
   width="468">
  <defs
     id="defs4154" />
  <metadata
     id="metadata4157">
    <rdf:RDF>
      <cc:Work
         rdf:about="">
        <dc:format>image/svg+xml</dc:format>
        <dc:type
           rdf:resource="http://purl.org/dc/dcmitype/StillImage" />
        <dc:title></dc:title>
      </cc:Work>
    </rdf:RDF>
  </metadata>
  <g
     id="layer1">
    <path
       id="path5699"
       d="M 72.090578,4.3537552 C 70.169203,4.4137368 52.705336,44.521504 53.707561,46.572469 c 0.157972,0.323269 1.200549,0.567084 2.844214,0.740511 3.65025,-9.485231 14.384654,-31.513058 15.798691,-31.543887 1.401436,-0.03055 12.636079,21.115604 16.685061,30.565733 1.794277,-0.28712 2.946696,-0.611188 3.099551,-0.96224 C 93.054234,43.26164 74.011944,4.2937736 72.090578,4.3537552 Z"
       style="fill:#aad0d2;fill-opacity:0.93710692" />
    <path
       id="path5933"
       d="m 120.52684,12.666666 a 35.620293,17.416666 0 0 0 -9.17398,0.596107 35.620293,17.416666 0 0 1 30.78629,17.235243 A 35.620293,17.416666 0 0 1 115.69283,47.318575 35.620293,17.416666 0 0 0 120.52684,47.5 35.620293,17.416666 0 0 0 156.14713,30.083334 35.620293,17.416666 0 0 0 120.52684,12.666666 Z"
       style="opacity:0.98000004;fill:#aad0d2;fill-opacity:0.9372549" />
    <text
       transform="scale(1.0615679,0.94200286)"
       id="text4712"
       y="50.424477"
       x="37.262909"
       style="font-style:normal;font-weight:normal;font-size:52.77265167px;line-height:125%;font-family:sans-serif;letter-spacing:0px;word-spacing:0px;fill:#000000;fill-opacity:1;stroke:none;stroke-width:1px;stroke-linecap:butt;stroke-linejoin:miter;stroke-opacity:1"
       xml:space="preserve"><tspan
         id="tspan4716"
         y="50.424477"
         x="37.262909">F</tspan></text>
    <text
       id="text4724"
       y="-5"
       x="101.66667"
       style="font-style:normal;font-weight:normal;font-size:60px;line-height:125%;font-family:sans-serif;letter-spacing:0px;word-spacing:0px;fill:#000000;fill-opacity:1;stroke:none;stroke-width:1px;stroke-linecap:butt;stroke-linejoin:miter;stroke-opacity:1"
       xml:space="preserve"><tspan
         y="-5"
         x="101.66667"
         id="tspan4726"></tspan></text>
    <text
       transform="scale(0.98899857,1.0111238)"
       id="text4728"
       y="46.977432"
       x="83.814964"
       style="font-style:normal;font-weight:normal;font-size:48.03454971px;line-height:125%;font-family:sans-serif;letter-spacing:0px;word-spacing:0px;fill:#000000;fill-opacity:1;stroke:none;stroke-width:1px;stroke-linecap:butt;stroke-linejoin:miter;stroke-opacity:1"
       xml:space="preserve"><tspan
         id="tspan4732"
         y="46.977432"
         x="83.814964">M</tspan></text>
    <text
       id="text4736"
       y="35.833332"
       x="194.16667"
       style="font-style:normal;font-weight:normal;font-size:60px;line-height:125%;font-family:sans-serif;letter-spacing:0px;word-spacing:0px;fill:#000000;fill-opacity:1;stroke:none;stroke-width:1px;stroke-linecap:butt;stroke-linejoin:miter;stroke-opacity:1"
       xml:space="preserve"><tspan
         y="35.833332"
         x="194.16667"
         id="tspan4738" /></text>
    <text
       id="text4740"
       y="44.166668"
       x="162.5"
       style="font-style:normal;font-weight:normal;font-size:20px;line-height:125%;font-family:sans-serif;letter-spacing:0px;word-spacing:0px;fill:#000000;fill-opacity:1;stroke:none;stroke-width:1px;stroke-linecap:butt;stroke-linejoin:miter;stroke-opacity:1"
       xml:space="preserve"><tspan
         y="44.166668"
         x="162.5"
         id="tspan4742">UNIVERSITY</tspan></text>
  </g>
</svg>
